:FULLY-SPECIFIED
:FORCE-ALL-JOINTS-BE-3DOF
:DEGREES
476
root 3.583 16.3128 -7.12998 5.26502 60.0436 -7.21887
lfemur -41.065 1.02735 -22.2311
ltibia 49.2016 -0 0
lfoot -20.3484 -1.65576 -0.0295058
ltoes 18.068 -0 0
rfemur -24.0573 -1.50152 11.8516
rtibia 68.8446 -0 0
rfoot 23.2412 -2.17031 -0.347163
rtoes -28.0256 0 0
lowerback 1.30736 -0.30193 2.14894
upperback -0.646166 -0.34747 1.08322
thorax -1.39427 -0.181852 -0.0713387
lowerneck -8.38575 -6.55228 0.744666
upperneck 3.71991 -8.90831 1.3759
head 2.70636 -4.36683 -0.107376
lclavicle -5.76476e-014 -2.14687e-014 0
lhumerus -48.7093 -27.066 108.515
lradius 54.5378 -0 0
lwrist 3.26538 0 0
lhand -9.62025 -6.09309 0.551207
lfingers 7.12502 -0 0
lthumb 16.3305 22.9501 0.476534
rclavicle -5.76476e-014 -2.14687e-014 0
rhumerus -53.8863 1.46399 -85.7296
rradius 60.898 -0 0
rwrist 17.5705 0 0
rhand -28.9767 -27.1829 -0.263251
rfingers 7.12502 -0 0
rthumb -2.30805 -57.3679 -0.329749
477
root 3.66756 16.3335 -7.08745 5.49544 61.1772 -6.58222
lfemur -39.9884 -0.467045 -22.387
ltibia 48.642 -0 0
lfoot -20.4277 -1.68986 -0.0267942
ltoes 18.2157 -0 0
rfemur -26.2505 -1.40707 11.6256
rtibia 71.3781 -0 0
rfoot 22.5957 -1.07005 -0.314803
rtoes -26.3254 0 0
lowerback 1.48779 -0.321846 1.83969
upperback -0.602678 -0.378665 0.970513
thorax -1.45036 -0.195831 -0.0138441
lowerneck -8.39891 -6.7077 0.601368
upperneck 3.80346 -9.10668 1.44686
head 2.74928 -4.46401 -0.0743767
lclavicle -5.76476e-014 -2.14687e-014 0
lhumerus -48.8053 -27.4282 108.746
lradius 54.8197 -0 0
lwrist 3.53347 0 0
lhand -8.26771 -5.35519 0.504557
lfingers 7.12502 -0 0
lthumb 17.6331 23.5982 0.436643
rclavicle -5.76476e-014 -2.14687e-014 0
rhumerus -53.6186 2.10771 -86.3163
rradius 61.0641 -0 0
rwrist 18.149 0 0
rhand -28.5826 -26.8714 -0.265953
rfingers 7.12502 -0 0
rthumb -1.92728 -57.0622 -0.332733
478
root 3.7515 16.3531 -7.04425 5.73243 62.3101 -5.94711
lfemur -38.9303 -1.91891 -22.5497
ltibia 48.115 -0 0
lfoot -20.5151 -1.73491 -0.023654
ltoes 18.334 -0 0
rfemur -28.4036 -1.30626 11.4013
rtibia 73.7701 -0 0
rfoot 21.9434 -0.00527612 -0.27249
rtoes -24.6913 0 0
lowerback 1.674 -0.339092 1.53978
upperback -0.557598 -0.406815 0.865392
thorax -1.50805 -0.208364 0.0461655
lowerneck -8.41241 -6.8629 0.458839
upperneck 3.89609 -9.3049 1.51609
head 2.79452 -4.56107 -0.0428305
lclavicle -5.76476e-014 -2.14687e-014 0
lhumerus -48.8934 -27.7884 108.982
lradius 55.0917 -0 0
lwrist 3.79384 0 0
lhand -6.94897 -4.64035 0.444022
lfingers 7.12502 -0 0
lthumb 18.9031 24.2238 0.384586
rclavicle -5.76476e-014 -2.14687e-014 0
rhumerus -53.3209 2.81464 -86.8916
rradius 61.3161 -0 0
rwrist 18.6766 0 0
rhand -28.1306 -26.5453 -0.259931
rfingers 7.12502 -0 0
rthumb -1.49136 -56.7345 -0.324858
479
root 3.83451 16.3716 -7.00016 5.97152 63.4465 -5.32086
lfemur -37.9004 -3.3136 -22.7194
ltibia 47.6267 -0 0
lfoot -20.61 -1.79011 -0.0201605
ltoes 18.4249 -0 0
rfemur -30.4944 -1.1965 11.1815
rtibia 75.9858 -0 0
rfoot 21.2982 1.01259 -0.222801
rtoes -23.142 0 0
lowerback 1.86415 -0.353772 1.25266
upperback -0.511491 -0.431919 0.769968
thorax -1.56688 -0.219465 0.108973
lowerneck -8.42648 -7.01816 0.317205
upperneck 3.99923 -9.5034 1.583
head 2.84239 -4.65821 -0.0130282
lclavicle -5.76476e-014 -2.14687e-014 0
lhumerus -48.9736 -28.1429 109.224
lradius 55.35 -0 0
lwrist 4.04197 0 0
lhand -5.67773 -3.95928 0.372574
lfingers 7.12502 -0 0
lthumb 20.1273 24.8166 0.322948
rclavicle -5.76476e-014 -2.14687e-014 0
rhumerus -52.992 3.58963 -87.4475
rradius 61.6638 -0 0
rwrist 19.142 0 0
rhand -27.6152 -26.2043 -0.244302
rfingers 7.12502 -0 0
rthumb -0.994811 -56.3835 -0.305022
480
root 3.91632 16.3887 -6.95493 6.20746 64.591 -4.7115
lfemur -36.9085 -4.63653 -22.895
ltibia 47.1831 -0 0
lfoot -20.7116 -1.85468 -0.0163896
ltoes 18.4905 -0 0
rfemur -32.5009 -1.07482 10.9691
rtibia 77.9906 -0 0
rfoot 20.6734 1.97223 -0.169046
rtoes -21.6961 0 0
lowerback 2.05637 -0.366036 0.981779
upperback -0.464922 -0.45398 0.686355
thorax -1.62644 -0.229147 0.174861
lowerneck -8.44136 -7.1738 0.176591
upperneck 4.1143 -9.70258 1.64697
head 2.89319 -4.75561 0.0147386
lclavicle -5.76476e-014 -2.14687e-014 0
lhumerus -49.0457 -28.4879 109.474
lradius 55.5909 -0 0
lwrist 4.27331 0 0
lhand -4.46756 -3.32256 0.293912
lfingers 7.12502 -0 0
lthumb 21.2926 25.3666 0.254944
rclavicle -5.76476e-014 -2.14687e-014 0
rhumerus -52.6304 4.43745 -87.9758
rradius 62.1172 -0 0
rwrist 19.534 0 0
rhand -27.0303 -25.8483 -0.218303
rfingers 7.12502 -0 0
rthumb -0.432118 -56.008 -0.272279
481
root 3.99664 16.4046 -6.90834 6.43404 65.748 -4.12805
lfemur -35.9649 -5.87317 -23.0746
ltibia 46.7904 -0 0
lfoot -20.8193 -1.92779 -0.012416
ltoes 18.5329 -0 0
rfemur -34.4011 -0.93792 10.7669
rtibia 79.75 -0 0
rfoot 20.0828 2.86239 -0.115187
rtoes -20.3722 0 0
lowerback 2.24881 -0.376073 0.730578
upperback -0.418454 -0.47301 0.616668
thorax -1.68629 -0.237423 0.244112
lowerneck -8.45727 -7.3301 0.0371273
upperneck 4.24272 -9.90285 1.70738
head 2.94723 -4.85348 0.0401766
lclavicle -5.76476e-014 -2.14687e-014 0
lhumerus -49.1097 -28.8196 109.732
lradius 55.8106 -0 0
lwrist 4.48333 0 0
lhand -3.33194 -2.74057 0.212353
lfingers 7.12502 -0 0
lthumb 22.3861 25.8642 0.184333
rclavicle -5.76476e-014 -2.14687e-014 0
rhumerus -52.2344 5.36274 -88.4679
rradius 62.6862 -0 0
rwrist 19.8414 0 0
rhand -26.3704 -25.4769 -0.181298
rfingers 7.12502 -0 0
rthumb 0.202262 -55.6065 -0.225861
